<svg width="101" height="40" viewBox="0 0 101 40" xmlns="http://www.w3.org/2000/svg">
    <path d="M28.3896 37.0979V21.0933H31.5236V23.7709H31.5997C32.046 22.8378 32.6951 22.1126 33.547 21.5953C34.399 21.0781 35.4284 20.8194 36.6354 20.8194C38.39 20.8194 39.7541 21.3468 40.7278 22.4016C41.7015 23.4463 42.1883 24.8916 42.1883 26.7375V37.0979H38.887V27.3765C38.887 26.1594 38.5979 25.2364 38.0198 24.6076C37.4518 23.9686 36.6049 23.6492 35.4791 23.6492C34.3229 23.6492 33.4 24.0244 32.7103 24.775C32.0206 25.5255 31.6758 26.5245 31.6758 27.772V37.0979H28.3896Z" />
    <path d="M48.8062 27.9546L55.2719 21.0933H59.1361L52.503 27.985L59.3947 37.0979H55.5762L50.1449 29.9932L48.7757 31.3472V37.0979H45.4896V15.1448H48.7757V27.9546H48.8062Z" />
    <path d="M69.6182 37.3717C68.462 37.3717 67.4427 37.108 66.5603 36.5806C65.6779 36.0532 64.9832 35.3179 64.4761 34.3747H64.4152V37.0979H61.2204V15.1448H64.5065V23.8165H64.5825C65.0694 22.8834 65.7489 22.1532 66.6212 21.6258C67.5035 21.0984 68.5076 20.8347 69.6334 20.8347C71.6517 20.8347 73.2644 21.5801 74.4713 23.071C75.6884 24.562 76.2969 26.5701 76.2969 29.0956C76.2969 31.6312 75.6935 33.6444 74.4865 35.1353C73.2796 36.6263 71.6568 37.3717 69.6182 37.3717ZM68.7358 23.6035C67.4782 23.6035 66.4538 24.1106 65.6627 25.1249C64.8817 26.129 64.4913 27.4525 64.4913 29.0956C64.4913 30.7488 64.8817 32.0774 65.6627 33.0815C66.4538 34.0856 67.4782 34.5877 68.7358 34.5877C70.0239 34.5877 71.0432 34.0958 71.7937 33.1119C72.5443 32.1281 72.9195 30.7894 72.9195 29.0956C72.9195 27.412 72.5443 26.0782 71.7937 25.0944C71.0432 24.1005 70.0239 23.6035 68.7358 23.6035Z" />
    <path d="M78.9745 37.0979V21.0933H82.2606V37.0979H78.9745ZM81.9716 18.2027C81.5963 18.5678 81.145 18.7504 80.6176 18.7504C80.0902 18.7504 79.6388 18.5678 79.2636 18.2027C78.8984 17.8376 78.7159 17.3964 78.7159 16.8791C78.7159 16.3517 78.8984 15.9055 79.2636 15.5404C79.6388 15.1752 80.0902 14.9927 80.6176 14.9927C81.1551 14.9927 81.6064 15.1752 81.9716 15.5404C82.3468 15.9055 82.5345 16.3517 82.5345 16.8791C82.5345 17.3964 82.3468 17.8376 81.9716 18.2027Z" />
    <path d="M98.0218 35.181C96.6424 36.6618 94.8016 37.4022 92.4993 37.4022C90.197 37.4022 88.3562 36.6618 86.9768 35.181C85.5975 33.6901 84.9078 31.6616 84.9078 29.0956C84.9078 26.5397 85.5975 24.5214 86.9768 23.0406C88.3562 21.5497 90.197 20.8042 92.4993 20.8042C94.8016 20.8042 96.6424 21.5497 98.0218 23.0406C99.4012 24.5214 100.091 26.5397 100.091 29.0956C100.091 31.6616 99.4012 33.6901 98.0218 35.181ZM92.4993 34.6942C93.8077 34.6942 94.8422 34.2022 95.6029 33.2184C96.3635 32.2346 96.7439 30.8603 96.7439 29.0956C96.7439 27.341 96.3585 25.9717 95.5876 24.9879C94.827 24.0041 93.7975 23.5122 92.4993 23.5122C91.2011 23.5122 90.1666 24.0041 89.3958 24.9879C88.6351 25.9717 88.2547 27.341 88.2547 29.0956C88.2547 30.8603 88.6351 32.2346 89.3958 33.2184C90.1666 34.2022 91.2011 34.6942 92.4993 34.6942Z" />
    <path fill-rule="evenodd" clip-rule="evenodd" d="M6.11154 37.4219C8.45174 37.4219 10.3488 35.5248 10.3488 33.1846L10.3488 6.08371C10.3488 3.74351 8.45174 1.84641 6.11154 1.84641C3.77134 1.84641 1.87424 3.74351 1.87424 6.08371L1.87424 33.1846C1.87424 35.5248 3.77135 37.4219 6.11154 37.4219ZM6.11154 39.2053C9.4367 39.2053 12.1323 36.5098 12.1323 33.1846L12.1323 6.08371C12.1323 2.75856 9.43669 0.062988 6.11154 0.0629883C2.78639 0.0629886 0.09082 2.75856 0.0908203 6.08371L0.0908227 33.1846C0.090823 36.5098 2.78639 39.2053 6.11154 39.2053Z" />
    <path fill-rule="evenodd" clip-rule="evenodd" d="M1.87424 33.1843C1.87424 35.5245 3.77134 37.4216 6.11154 37.4216H19.5732C21.9134 37.4216 23.8105 35.5245 23.8105 33.1843C23.8105 30.8441 21.9134 28.947 19.5732 28.947L6.11154 28.947C3.77134 28.947 1.87424 30.8441 1.87424 33.1843ZM0.0908203 33.1843C0.0908203 36.5094 2.78639 39.205 6.11154 39.205H19.5732C22.8984 39.205 25.594 36.5094 25.594 33.1843C25.594 29.8591 22.8984 27.1636 19.5732 27.1636H6.11154C2.78639 27.1636 0.0908203 29.8591 0.0908203 33.1843Z" />
    <path d="M23.1202 21.1429C23.1202 23.8861 20.8964 26.11 18.1531 26.11C15.4099 26.11 13.186 23.8861 13.186 21.1429C13.186 18.3996 15.4099 16.1758 18.1531 16.1758C20.8964 16.1758 23.1202 18.3996 23.1202 21.1429Z" />
</svg>